# AST/ASF file generated using VICON BodyLanguage
# -----------------------------------------------
:version 1.10
:name VICON
:units
  mass 1.0
  length 0.45
  angle deg
:documentation
   .ast/.asf automatically generated from VICON data using
   VICON BodyBuilder and BodyLanguage model FoxedUp or BRILLIANT.MOD
:root
   order TX TY TZ RX RY RZ
   axis XYZ
   position 0 0 0  
   orientation 0 0 0 
:bonedata
  begin
     id 1 
     name lhipjoint
     direction 0.734343 -0.627749 0.258209 
     length 2.5437 
     axis 0 0 0  XYZ
  end
  begin
     id 2 
     name lfemur
     direction 0.34202 -0.939693 0  
     length 6.7391  
     axis 0 0 20  XYZ
    dof rx ry rz
    limits (-160.0 20.0)
           (-70.0 70.0)
           (-60.0 70.0)
  end
  begin
     id 3 
     name ltibia
     direction 0.34202 -0.939693 0   
     length 7.21536   
     axis 0 0 20   XYZ
    dof rx
    limits (-10.0 170.0)
  end
  begin
     id 4 
     name lfoot
     direction 0.0489572 -0.134509 0.989702   
     length 1.61313   
     axis -90 7.62852e-016 20   XYZ
    dof rx rz
    limits (-45.0 90.0)
           (-70.0 20.0)
  end
  begin
     id 5 
     name ltoes
     direction 1.53451e-011 -4.21692e-011 1   
     length 0.823104   
     axis -90 7.62852e-016 20   XYZ
    dof rx
    limits (-90.0 20.0)
  end
  begin
     id 6 
     name rhipjoint
     direction -0.746398 -0.615468 0.253157   
     length 2.59446  
     axis 0 0 0  XYZ 
  end
  begin
     id 7 
     name rfemur
     direction -0.34202 -0.939693 0   
     length 6.7075   
     axis 0 0 -20   XYZ
    dof rx ry rz
    limits (-160.0 20.0)
           (-70.0 70.0)
           (-70.0 60.0)
  end
  begin
     id 8 
     name rtibia
     direction -0.34202 -0.939693 0   
     length 7.27262   
     axis 0 0 -20   XYZ
    dof rx
    limits (-10.0 170.0)
 end
 begin
     id 9 
     name rfoot
     direction -0.0455203 -0.125066 0.991104   
     length 1.91095  
     axis -90 -7.62852e-016 -20   XYZ
    dof rx rz
    limits (-45.0 90.0)
           (-20.0 70.0)
  end
  begin
     id 10 
     name rtoes
     direction -1.53601e-011 -4.21913e-011 1   
     length 0.969037   
     axis -90 -7.62852e-016 -20   XYZ
    dof rx
    limits (-90.0 20.0)
  end
  begin
     id 11 
     name lowerback
     direction 0.0181546 0.999122 -0.0377542   
     length 1.99916   
     axis 0 0 0   XYZ
    dof rx ry rz
    limits (-20.0 45.0)
           (-30.0 30.0)
           (-30.0 30.0)
  end
  begin
     id 12 
     name upperback
     direction 0.0203486 0.99589 0.0882534   
     length 1.951   
     axis 0 0 0   XYZ
    dof rx ry rz
    limits (-20.0 45.0)
           (-30.0 30.0)
           (-30.0 30.0)
  end
  begin
     id 13 
     name thorax
     direction 0.0131685 0.994241 0.106355   
     length 1.97461   
     axis 0 0 0   XYZ
    dof rx ry rz
    limits (-20.0 45.0)
           (-30.0 30.0)
           (-30.0 30.0)
  end
  begin
     id 14 
     name lowerneck
     direction -0.0281395 0.999325 0.023617   
     length 1.7959   
     axis 0 0 0   XYZ
    dof rx ry rz
    limits (-20.0 45.0)
           (-30.0 30.0)
           (-30.0 30.0)
  end
  begin
     id 15 
     name upperneck
     direction 0.0288721 0.991984 -0.123019   
     length 1.79917   
     axis 0 0 0   XYZ
    dof rx ry rz
    limits (-20.0 45.0)
           (-30.0 30.0)
           (-30.0 30.0)
  end
  begin
     id 16
     name head
     direction 0.0133797 0.998944 -0.0439492  
     length 1.80902  
     axis 0 0 0   XYZ
    dof rx ry rz
    limits (-20.0 45.0)
           (-30.0 30.0)
           (-30.0 30.0)
  end
  begin
     id 17 
     name lclavicle
     direction 0.919195 0.377107 0.113449  
     length 3.17815  
     axis 0 0 0   XYZ
    dof ry rz
    limits (-20.0 10.0)
           (0.0 20.0)
  end
  begin
     id 18 
     name lhumerus
     direction 1 -4.48959e-011 2.13129e-027   
     length 4.84137   
     axis 180 -30 -90   XYZ
    dof rx ry rz
    limits (-60.0 90.0)
           (-90.0 90.0)
           (-90.0 90.0)
  end
  begin
     id 19
     name lradius
     direction 1 -4.48957e-011 -6.30627e-028   
     length 3.2452   
     axis 180 -30 -90   XYZ
    dof rx
    limits (-10.0 170.0)
  end
  begin
     id 20
     name lwrist
     direction 1 -4.4901e-011 9.13299e-027   
     length 1.6226   
     axis -6.84618e-015 90 90   XYZ
    dof ry
    limits (-180.0 0.0)
 end
  begin
     id 21 
     name lhand
     direction 1 -4.48816e-011 1.82293e-026   
     length 0.521221   
     axis -1.16502e-014 90 90   XYZ
    dof rx rz
    limits (-90.0 90.0)
           (-45.0 45.0)
  end
  begin
     id 22 
     name lfingers
     direction 1 -4.49108e-011 3.65687e-026   
     length 0.420221   
     axis -2.33008e-014 90 90   XYZ
    dof rx
    limits (0.0 90.0)
  end
  begin
     id 23
     name lthumb
     direction 0.707107 -6.34943e-011 0.707107   
     length 0.603356   
     axis -90 45 5.69224e-014   XYZ
    dof rx rz
    limits (-45.0 45.0)
           (-45.0 45.0)
  end
  begin
     id 24 
     name rclavicle
     direction -0.90847 0.38596 0.160368   
     length 3.12973  
     axis 0 0 0   XYZ 
    dof ry rz
    limits (-10.0 20.0)
           (-20.0 0.0)
  end
  begin
     id 25 
     name rhumerus
     direction -1 -4.48974e-011 4.47268e-028  
     length 4.72284   
     axis 180 30 90   XYZ
    dof rx ry rz
    limits (-90.0 60.0)
           (-90.0 90.0)
           (-90.0 90.0)
  end
  begin
     id 26 
     name rradius
     direction -1 -4.48969e-011 3.43203e-027   
     length 3.23459   
     axis 180 30 90   XYZ
    dof rx
    limits (-10.0 170.0)
  end
  begin
     id 27 
     name rwrist
     direction -1 -4.48969e-011 9.12911e-027   
     length 1.6173   
     axis -6.84618e-015 -90 -90   XYZ
    dof ry
    limits (-180.0 0.0)
  end
  begin
     id 28
     name rhand
     direction -1 -4.49194e-011 1.83006e-026   
     length 0.307416   
     axis -1.16502e-014 -90 -90   XYZ
    dof rx rz
    limits (-90.0 90.0)
           (-45.0 45.0)
  end
  begin
     id 29
     name rfingers
     direction -1 -4.48423e-011 3.63103e-026   
     length 0.247847   
     axis -2.33008e-014 -90 -90   XYZ
    dof rx
    limits (0.0 90.0)
  end
  begin
     id 30
     name rthumb
     direction -0.707107 -6.34802e-011 0.707107   
     length 0.35586   
     axis -90 -45 -5.69224e-014   XYZ
    dof rx rz
    limits (-45.0 45.0)
           (-45.0 45.0)
  end
:hierarchy
  begin
    root lhipjoint rhipjoint lowerback
    lhipjoint lfemur
    lfemur ltibia
    ltibia lfoot
    lfoot ltoes
    rhipjoint rfemur
    rfemur rtibia
    rtibia rfoot
    rfoot rtoes
    lowerback upperback
    upperback thorax
    thorax lowerneck lclavicle rclavicle
    lowerneck upperneck
    upperneck head
    lclavicle lhumerus
    lhumerus lradius
    lradius lwrist
    lwrist lhand lthumb
    lhand lfingers
    rclavicle rhumerus
    rhumerus rradius
    rradius rwrist
    rwrist rhand rthumb
    rhand rfingers
  end

#!OML:ASF H:\Terrain\Patient Classification 1\Animal1\Tuesday\Animal1.ASF
:FULLY-SPECIFIED
:DEGREES
396
root 7.9788 16.9958 13.9682 -164.039 -25.0472 178.745
lowerback -3.62665 0.603905 -1.55733
upperback -5.96346 0.454205 -0.773261
thorax -4.12713 0.126772 0.0840262
lowerneck -6.33259 -4.39604 -6.91721
upperneck 23.6329 -9.49199 11.0657
head 9.2799 -4.63531 3.9186
rclavicle 6.86211e-014 3.29983e-014
rhumerus -42.5938 18.3879 -99.4437
rradius 23.5341
rwrist -10.7384
rhand -19.0477 26.9037
rfingers 7.12502
rthumb 7.25911 -2.95182
lclavicle 6.86211e-014 3.29983e-014
lhumerus -38.7137 6.20813 84.0747
lradius 31.8476
lwrist -31.6339
lhand 9.65589 37.2949
lfingers 7.12502
lthumb 34.7999 63.8974
rfemur -23.9377 27.1472 17.2418
rtibia 26.222
rfoot -37.4358 -27.0455
rtoes 49.4277
lfemur -29.9504 -8.63396 -22.0676
ltibia 31.4354
lfoot -23.2038 20.3213
ltoes 26.2782
397
root 8.0057 16.987 13.9667 -163.837 -25.1189 178.608
lowerback -3.76646 0.648216 -1.60055
upperback -6.02289 0.507307 -0.780411
thorax -4.1121 0.151426 0.101713
lowerneck -6.35976 -4.51316 -7.07748
upperneck 23.673 -9.67225 11.1638
head 9.33147 -4.72391 3.95915
rclavicle 2.02357e-014 1.73937e-014
rhumerus -42.7168 18.1726 -99.3088
rradius 23.582
rwrist -10.6646
rhand -19.0091 26.637
rfingers 7.12502
rthumb 7.29632 -3.21723
lclavicle 2.02357e-014 1.73937e-014
lhumerus -38.757 5.81814 84.4929
lradius 31.8785
lwrist -31.6773
lhand 9.88773 37.3421
lfingers 7.12502
lthumb 35.0198 63.8935
rfemur -24.2577 26.763 17.1711
rtibia 26.4763
rfoot -37.167 -27.0402
rtoes 49.0356
lfemur -30.1502 -9.09535 -22.5679
ltibia 31.926
lfoot -23.3918 19.5039
ltoes 25.8992
398
root 8.03103 16.9717 13.9587 -163.77 -25.1609 178.63
lowerback -4.02976 0.595633 -1.65875
upperback -5.99418 0.447754 -0.618242
thorax -3.93511 0.126468 0.303274
lowerneck -6.50278 -4.52034 -7.07562
upperneck 23.6839 -9.61337 10.9926
head 9.34748 -4.69918 3.9024
rclavicle 4.38258e-015 1.11319e-014
rhumerus -42.8373 18.1634 -99.0597
rradius 23.9745
rwrist -10.8908
rhand -18.2109 26.3008
rfingers 7.12502
rthumb 8.06678 -3.52526
lclavicle 4.38258e-015 1.11319e-014
lhumerus -38.8751 6.31546 84.6219
lradius 31.7607
lwrist -31.987
lhand 9.28886 35.9492
lfingers 7.12502
lthumb 34.4515 62.6316
rfemur -24.474 26.889 17.2346
rtibia 26.7178
rfoot -37.6805 -26.6434
rtoes 49.4665
lfemur -30.1789 -9.51928 -22.9425
ltibia 32.2878
lfoot -24.2301 18.9661
ltoes 27.7073
399
root 8.05184 16.9586 13.9447 -163.796 -25.0578 178.714
lowerback -4.25532 0.588605 -1.62891
upperback -5.9279 0.45096 -0.471066
thorax -3.73975 0.130134 0.439857
lowerneck -6.5461 -4.53304 -7.11571
upperneck 23.5844 -9.55458 10.8708
head 9.31031 -4.67746 3.87197
rclavicle -7.44744e-015 4.19933e-015
rhumerus -42.6958 18.0753 -98.7119
rradius 24.3359
rwrist -11.4746
rhand -16.3899 25.1425
rfingers 7.12502
rthumb 9.82399 -4.60832
lclavicle -7.44744e-015 4.19933e-015
lhumerus -39.0046 6.51809 84.8726
lradius 31.7913
lwrist -31.9482
lhand 8.32658 34.5733
lfingers 7.12502
lthumb 33.5375 61.4585
rfemur -24.6463 27.2016 17.3415
rtibia 27.0045
rfoot -38.1772 -26.1721
rtoes 49.8193
lfemur -30.0277 -9.76599 -23.3268
ltibia 32.4793
lfoot -25.2763 18.1839
ltoes 35.3116
400
root 8.07008 16.9467 13.9391 -163.842 -24.9041 178.756
lowerback -4.04959 0.644292 -1.58227
upperback -6.05153 0.514155 -0.383286
thorax -3.98642 0.160934 0.503175
lowerneck -6.41744 -4.5496 -7.32033
upperneck 23.652 -9.61605 10.9838
head 9.33116 -4.72523 3.94303
rclavicle 4.65929e-014 1.33652e-014
rhumerus -42.8576 18.0205 -98.5677
rradius 24.5425
rwrist -11.8277
rhand -15.8249 24.8399
rfingers 7.12502
rthumb 10.3691 -4.88443
lclavicle 4.65929e-014 1.33652e-014
lhumerus -39.3386 6.32004 85.2348
lradius 31.8625
lwrist -31.6563
lhand 6.51306 33.5586
lfingers 7.12502
lthumb 31.8121 60.8021
rfemur -24.8121 27.1785 17.4538
rtibia 27.3105
rfoot -38.3185 -25.7687
rtoes 50.0823
lfemur -29.8219 -10.568 -23.4563
ltibia 32.4953
lfoot -26.4832 15.3474
ltoes 34.7999
401
root 8.09249 16.9303 13.9347 -163.907 -24.876 178.724
lowerback -3.63622 0.657471 -1.63109
upperback -6.24891 0.512329 -0.331844
thorax -4.42804 0.162628 0.580447
lowerneck -6.3438 -4.54638 -7.34329
upperneck 23.7923 -9.68098 11.0477
head 9.37756 -4.76419 3.96425
rclavicle -2.43589e-015 1.65985e-014
rhumerus -43.1712 17.7553 -98.4728
rradius 24.5631
rwrist -11.6877
rhand -16.302 25.6628
rfingers 7.12502
rthumb 9.90884 -4.08396
lclavicle -2.43589e-015 1.65985e-014
lhumerus -39.7266 6.20892 85.4273
lradius 31.7856
lwrist -31.465
lhand 6.60899 34.2129
lfingers 7.12502
lthumb 31.9034 61.4382
rfemur -24.8892 27.0691 17.5679
rtibia 27.5875
rfoot -38.2472 -25.5242
rtoes 49.9453
lfemur -29.5866 -11.4871 -23.5943
ltibia 32.4009
lfoot -27.4472 12.1014
ltoes 18.4289
402
root 8.10872 16.9179 13.9211 -163.976 -24.8223 178.598
lowerback -3.55867 0.674047 -1.67279
upperback -6.24491 0.533435 -0.372465
thorax -4.46831 0.174932 0.561153
lowerneck -6.30271 -4.61242 -7.22483
upperneck 23.5785 -9.75824 11.0729
head 9.29924 -4.78686 3.94277
rclavicle -8.28373e-015 4.5472e-015
rhumerus -43.2258 17.1548 -98.1839
rradius 24.5721
rwrist -11.2202
rhand -16.1931 26.1594
rfingers 7.12502
rthumb 10.0139 -3.58235
lclavicle -8.28373e-015 4.5472e-015
lhumerus -39.7715 6.06269 85.5393
lradius 31.6783
lwrist -31.3362
lhand 9.34238 36.3888
lfingers 7.12502
lthumb 34.5023 63.0596
rfemur -24.8389 26.9934 17.6183
rtibia 27.8108
rfoot -38.1359 -25.5017
rtoes 49.5262
lfemur -29.2427 -12.3369 -23.8383
ltibia 32.2147
lfoot -27.8206 10.3706
ltoes 13.3048
403
root 8.12225 16.9137 13.9103 -164.05 -24.8251 178.692
lowerback -3.65618 0.698854 -1.45244
upperback -6.21057 0.569624 -0.368524
thorax -4.37437 0.183315 0.44265
lowerneck -6.15997 -4.73053 -7.25616
upperneck 23.2693 -9.9173 11.2379
head 9.19205 -4.85361 3.98839
rclavicle -4.75856e-014 -1.20265e-014
rhumerus -43.3236 17.0488 -98.201
rradius 24.6757
rwrist -11.2878
rhand -16.498 26.0128
rfingers 7.12502
rthumb 9.71969 -3.74288
lclavicle -4.75856e-014 -1.20265e-014
lhumerus -39.7762 5.96308 85.6658
lradius 31.6282
lwrist -31.257
lhand 11.2021 37.5457
lfingers 7.12502
lthumb 36.2656 63.7965
rfemur -24.8785 26.8729 17.8506
rtibia 28.0333
rfoot -37.8797 -25.7443
rtoes 49.328
lfemur -28.9859 -13.1841 -23.842
ltibia 31.9447
lfoot -27.3647 8.24899
ltoes 22.5386
404
root 8.14144 16.9097 13.9012 -164.067 -24.9369 179.091
lowerback -3.86257 0.708612 -1.07338
upperback -6.26091 0.578966 -0.227879
thorax -4.30673 0.171141 0.377455
lowerneck -6.02289 -4.82131 -7.39026
upperneck 23.167 -10.0831 11.4309
head 9.16569 -4.93556 4.062
rclavicle 3.83981e-015 -3.42904e-015
rhumerus -43.5295 17.2667 -98.3976
rradius 24.6808
rwrist -11.2891
rhand -18.2659 26.3815
rfingers 7.12502
rthumb 8.01367 -3.44656
lclavicle 3.83981e-015 -3.42904e-015
lhumerus -39.9571 5.96705 85.7809
lradius 31.5494
lwrist -31.135
lhand 10.5944 37.2002
lfingers 7.12502
lthumb 35.6899 63.5923
rfemur -25.0332 26.6751 18.3213
rtibia 28.0573
rfoot -37.8271 -25.5967
rtoes 49.5195
lfemur -29.1033 -14.3829 -23.2268
ltibia 31.7451
lfoot -26.6779 5.12632
ltoes 29.6055
405
root 8.16261 16.8894 13.8937 -163.976 -24.9366 179.315
lowerback -4.08322 0.693373 -0.938937
upperback -6.28367 0.557093 -0.0904613
thorax -4.20557 0.15446 0.44578
lowerneck -6.03766 -4.88454 -7.45633
upperneck 23.1671 -10.1829 11.48
head 9.18584 -4.98417 4.07813
rclavicle -4.37155e-014 1.68967e-015
rhumerus -43.7019 17.7912 -98.698
rradius 24.4541
rwrist -10.8444
rhand -21.0602 28.2706
rfingers 7.12502
rthumb 5.31626 -1.6427
lclavicle -4.37155e-014 1.68967e-015
lhumerus -40.0255 6.22002 85.7877
lradius 31.3779
lwrist -31.1428
lhand 9.04928 36.5353
lfingers 7.12502
lthumb 34.2241 63.2691
rfemur -25.1999 26.5126 18.5679
rtibia 27.9296
rfoot -38.0904 -24.9739
rtoes 49.8862
lfemur -29.3116 -15.2185 -22.9243
ltibia 31.6052
lfoot -26.5763 2.003
ltoes 32.7592
406
root 8.18389 16.8867 13.888 -163.953 -24.8044 179.565
lowerback -4.14787 0.691411 -0.806347
upperback -6.30181 0.553929 0.0476434
thorax -4.18779 0.148913 0.51465
lowerneck -6.18041 -4.93352 -7.52797
upperneck 23.1495 -10.2662 11.6132
head 9.22749 -5.01129 4.12272
rclavicle 3.36428e-014 1.10325e-014
rhumerus -43.4139 18.1882 -98.7364
rradius 24.5082
rwrist -12.0731
rhand -20.1043 26.827
rfingers 7.12502
rthumb 6.23914 -3.06107
lclavicle 3.36428e-014 1.10325e-014
lhumerus -39.9584 6.80626 85.6472
lradius 31.1289
lwrist -31.4334
lhand 8.22804 35.9793
lfingers 7.12502
lthumb 33.4438 62.8848
rfemur -25.313 26.444 18.8246
rtibia 27.7707
rfoot -38.1413 -24.5536
rtoes 49.6244
lfemur -29.4138 -16.3239 -22.3747
ltibia 31.4574
lfoot -25.9162 -0.888287
ltoes 40.5704
407
root 8.2075 16.8903 13.8796 -163.885 -24.6199 179.81
lowerback -4.20134 0.716499 -0.672101
upperback -6.40222 0.574801 0.0992313
thorax -4.26226 0.149745 0.493435
lowerneck -6.11424 -4.98377 -7.5661
upperneck 22.9913 -10.3976 11.8964
head 9.19262 -5.05987 4.21266
rclavicle -1.78673e-014 -1.69961e-014
rhumerus -43.3568 18.269 -98.9114
rradius 24.3832
rwrist -12.1969
rhand -19.6867 26.3066
rfingers 7.12502
rthumb 6.64231 -3.56925
lclavicle -1.78673e-014 -1.69961e-014
lhumerus -40.1174 7.19905 85.3843
lradius 31.0459
lwrist -31.5808
lhand 8.8399 35.8389
lfingers 7.12502
lthumb 34.0252 62.6171
rfemur -25.6613 26.166 19.1232
rtibia 28.0243
rfoot -37.7556 -24.4526
rtoes 48.6774
lfemur -29.4405 -17.4836 -21.7917
ltibia 30.9567
lfoot -24.9564 -2.46373
ltoes 45.8009
408
root 8.23092 16.8867 13.871 -163.725 -24.3987 179.779
lowerback -4.25919 0.735555 -0.847992
upperback -6.5107 0.588005 0.0797505
thorax -4.34661 0.158376 0.572398
lowerneck -5.9786 -5.08812 -7.51906
upperneck 22.8945 -10.6073 12.0393
head 9.16334 -5.15563 4.23187
rclavicle 6.67078e-014 -8.54774e-015
rhumerus -43.3754 17.5927 -98.7076
rradius 24.5523
rwrist -11.7729
rhand -18.8824 25.9466
rfingers 7.12502
rthumb 7.41865 -3.90331
lclavicle 6.67078e-014 -8.54774e-015
lhumerus -40.4131 7.09021 85.2797
lradius 31.1291
lwrist -31.3208
lhand 9.42838 36.2286
lfingers 7.12502
lthumb 34.584 62.8808
rfemur -26.0418 25.7429 19.1836
rtibia 28.411
rfoot -37.1344 -24.3004
rtoes 48.3472
lfemur -29.4277 -18.8331 -21.3726
ltibia 30.3561
lfoot -24.1324 -3.59884
ltoes 47.8848
409
root 8.25607 16.8289 13.8684 -163.652 -24.2286 179.799
lowerback -4.38729 0.739028 -0.978859
upperback -6.47086 0.597304 0.107289
thorax -4.23516 0.169356 0.675054
lowerneck -6.05625 -5.17398 -7.51122
upperneck 22.7713 -10.7611 12.2389
head 9.1649 -5.20796 4.27815
rclavicle 1.11242e-014 1.09829e-014
rhumerus -43.1984 16.838 -98.3756
rradius 24.6242
rwrist -11.5048
rhand -18.6712 26.5807
rfingers 7.12502
rthumb 7.62251 -3.26196
lclavicle 1.11242e-014 1.09829e-014
lhumerus -40.413 6.85223 85.3524
lradius 31.1613
lwrist -31.034
lhand 9.30329 36.5807
lfingers 7.12502
lthumb 34.4652 63.2599
rfemur -26.4933 25.3682 19.3294
rtibia 28.9717
rfoot -36.4437 -24.1217
rtoes 48.088
lfemur -29.2031 -18.588 -21.7834
ltibia 29.5986
lfoot -25.578 -4.21722
ltoes 49.1787
